<?xml version="1.0" ?><svg data-name="Layer 4" id="Layer_4" viewBox="0 0 128 128" xmlns="http://www.w3.org/2000/svg"><path d="M111.183,103.461h-.562v-2.453a6.9,6.9,0,0,0-5.491-6.748V25.153h5.733a2,2,0,0,0,2-2V13.194a2,2,0,0,0-2-2H17.137a2,2,0,0,0-2,2v9.959a2,2,0,0,0,2,2H22.87V94.26a6.9,6.9,0,0,0-5.491,6.748v2.453A7.076,7.076,0,0,0,9.8,110.479v4.327a2,2,0,0,0,2,2H116.2a2,2,0,0,0,2-2v-4.327A7.026,7.026,0,0,0,111.183,103.461ZM19.137,15.194h89.726v5.959H19.137Zm81.993,9.959V94.117H90.686V59.542A12.154,12.154,0,0,0,78.546,47.4H49.454a12.154,12.154,0,0,0-12.14,12.14V94.117H26.87V25.153ZM56.14,94.117c-3.971-1.7-4.64-6.138-2-10.749a49.77,49.77,0,0,0,2.391-4.7,12.384,12.384,0,0,1,2.484,4.517,2,2,0,0,0,3.3,1.036c.283-.258,6.146-5.77,4.748-16.215a18.844,18.844,0,0,1,8.713,15.046c.195,5.754-.6,10.266-4.922,11.063ZM79.772,82.833c-.85-15.414-14.333-20.254-14.906-20.453A2.014,2.014,0,0,0,62.3,64.841c1.988,6.663.567,11.3-.853,13.91a25.558,25.558,0,0,0-4.337-5.346,2.013,2.013,0,0,0-3.293,1.024,33.444,33.444,0,0,1-3.161,6.987c-2.534,4.909-2.953,8.949-.53,12.7H41.314V59.542a8.149,8.149,0,0,1,8.14-8.14H78.546a8.149,8.149,0,0,1,8.14,8.14V94.117H77.555C79.285,91.482,80.042,87.714,79.772,82.833ZM21.379,101.008a3,3,0,0,1,3.491-2.891h78.86a2.894,2.894,0,0,1,2.891,2.891v2.453H21.379Zm92.821,11.8H13.8v-2.327a3.021,3.021,0,0,1,3.017-3.018h94.366a3.021,3.021,0,0,1,3.017,3.018Z"/></svg>